{"scene":0,"scenes":[{"nodes":[0]}],"asset":{"version":"2.0","generator":"https://github.com/mikedh/trimesh"},"accessors":[{"componentType":5125,"type":"SCALAR","bufferView":0,"count":1500,"max":[1123],"min":[0]},{"componentType":5126,"type":"VEC3","byteOffset":0,"bufferView":1,"count":1124,"max":[13.91919994354248,25.799100875854492,7.3297200202941895],"min":[-14.06190013885498,-0.7426329851150513,-13.472000122070312]},{"componentType":5126,"type":"VEC2","byteOffset":0,"bufferView":3,"count":1124,"max":[0.9172409772872925,0.9900000095367432],"min":[0.009999999776482582,0.009999999776482582]},{"componentType":5126,"count":1124,"type":"VEC3","byteOffset":0,"bufferView":4,"max":[0.9911700487136841,0.9982537031173706,0.9957728385925293],"min":[-0.9856776595115662,-0.9966023564338684,-0.9991738796234131]}],"meshes":[{"name":"geometry_0","extras":{},"primitives":[{"attributes":{"POSITION":1,"TEXCOORD_0":2,"NORMAL":3},"indices":0,"mode":4,"material":0}]}],"images":[{"bufferView":2,"mimeType":"image/png"}],"textures":[{"source":0}],"materials":[{"pbrMetallicRoughness":{"baseColorTexture":{"index":0},"baseColorFactor":[0.4,0.4,0.4,1.0],"roughnessFactor":0.9036020036098448},"doubleSided":false}],"nodes":[{"name":"world","children":[1]},{"name":"geometry_0","mesh":0}],"buffers":[{"uri":"gltf_buffer_0.bin","byteLength":6000},{"uri":"gltf_buffer_1.bin","byteLength":13488},{"uri":"gltf_buffer_2.bin","byteLength":80},{"uri":"gltf_buffer_3.bin","byteLength":8992},{"uri":"gltf_buffer_4.bin","byteLength":13488}],"bufferViews":[{"buffer":0,"byteOffset":0,"byteLength":6000},{"buffer":1,"byteOffset":0,"byteLength":13488},{"buffer":2,"byteOffset":0,"byteLength":80},{"buffer":3,"byteOffset":0,"byteLength":8992},{"buffer":4,"byteOffset":0,"byteLength":13488}]}